<svg xmlns="http://www.w3.org/2000/svg" width="920" height="440" viewBox="0 0 920 440"><style>text{font-family:Arial,sans-serif;font-size:19px;font-weight:600;fill:#111827} .wire{stroke:#0066ff;stroke-width:4;fill:none} .res{stroke:#ff7800;stroke-width:4;fill:#fff200} .src{stroke:#e6007e;stroke-width:4;fill:#ffb3e1} .node{fill:#00b83f}</style><rect data-audit-background="true" width="100%" height="100%" fill="#ffffff"/><path class="wire" d="M75 210 L290 50"/><rect class="res" x="126.5" y="85.0" width="76" height="34" rx="6"/><text x="136.5" y="109.0">10Ω</text><path class="wire" d="M290 50 L570 50"/><rect class="res" x="410.0" y="5.0" width="76" height="34" rx="6"/><text x="420.0" y="29.0">15Ω</text><path class="wire" d="M570 50 L845 210"/><rect class="res" x="694.5" y="131.0" width="76" height="34" rx="6"/><text x="704.5" y="155.0">20Ω</text><path class="wire" d="M290 50 L460 365"/><rect class="res" x="299.0" y="208.5" width="76" height="34" rx="6"/><text x="309.0" y="232.5">40Ω</text><path class="wire" d="M570 50 L460 365"/><rect class="res" x="502.0" y="172.5" width="76" height="34" rx="6"/><text x="512.0" y="196.5">35Ω</text><path class="wire" d="M845 210 L460 365"/><rect class="res" x="584.5" y="250.5" width="76" height="34" rx="6"/><text x="594.5" y="274.5">50Ω</text><path class="wire" d="M75 210 Q460.0 390 845 210"/><rect class="res" x="392" y="328" width="76" height="34" rx="6"/><text x="402" y="352">40Ω</text><circle class="src" cx="75" cy="282" r="31"/><text x="58" y="288">24V</text><path class="wire" d="M75 210 V251 M75 313 V365 H460"/><circle class="node" cx="570" cy="50" r="8"/><text x="561" y="34">C</text><circle class="node" cx="845" cy="210" r="8"/><text x="836" y="194">D</text><circle class="node" cx="75" cy="210" r="8"/><text x="66" y="194">A</text><path class="wire" d="M425 365 H495 M438 374 H482 M450 383 H470"/><text x="430" y="410">ground</text><circle class="node" cx="290" cy="50" r="8"/><text x="281" y="34">B</text></svg>